<svg xmlns="http://www.w3.org/2000/svg" xmlns:xlink="http://www.w3.org/1999/xlink" xmlns:lucid="lucid" width="1905.13" height="1078.84"><g transform="translate(3.8424376925442516 -126.49729205828058)" lucid:page-tab-id="PQ9Fnkb.CC9B"><path d="M0 0h3677.73v1322.83H0z" fill="#fff"/><path d="M772.27 770.2c-13.33 0-24.13 10.8-24.13 24.12v72.4c0 13.3 10.8 24.12 24.13 24.12h174.1c13.32 0 24.12-10.8 24.12-24.13v-72.38c0-13.32-10.8-24.13-24.14-24.13z" stroke="#5e5e5e" stroke-width="3" fill="#c1e4f7"/><use xlink:href="#a" transform="matrix(1,0,0,1,756.1376615338626,778.1946056313355) translate(62.141975308641975 56.94444444444444)"/><path d="M1171.4 1165.34c0 11.04-8.96 20-20 20-11.05 0-20-8.96-20-20 0-11.05 8.95-20 20-20 11.04 0 20 8.95 20 20z" stroke="#5e5e5e" stroke-width="3"/><path d="M389.5 375.97c-13.33 0-24.13 10.8-24.13 24.13v72.38c0 13.33 10.8 24.13 24.12 24.13h174.1c13.32 0 24.12-10.8 24.12-24.12V400.1c0-13.33-10.8-24.13-24.13-24.13z" stroke="#5e5e5e" stroke-width="3" fill="#c1e4f7"/><use xlink:href="#b" transform="matrix(1,0,0,1,373.36580276463746,383.9705359829002) translate(40.660493827160494 56.94444444444444)"/><use xlink:href="#c" transform="matrix(1,0,0,1,373.36580276463746,383.9705359829002) translate(83.74691358024691 56.94444444444444)"/><path d="M1195.53 375.97c-13.33 0-24.13 10.8-24.13 24.13v72.38c0 13.33 10.8 24.13 24.13 24.13h174.1c13.32 0 24.12-10.8 24.12-24.12V400.1c0-13.33-10.8-24.13-24.13-24.13z" stroke="#5e5e5e" stroke-width="3" fill="#c1e4f7"/><use xlink:href="#d" transform="matrix(1,0,0,1,1179.3971097097813,383.9705359829002) translate(69.05555555555556 56.94444444444444)"/><path d="M1151.4 1142.84V869.82c0-3.3-2.7-6-6-6H990.5" stroke="#5e5e5e" stroke-width="2" fill="none"/><path d="M1152.4 1143.95l-.94-.12-1.06.04v-1.06h2z" fill="#5e5e5e"/><path d="M975.23 863.82l14.26-4.63v9.26z" stroke="#5e5e5e" stroke-width="2" fill="#5e5e5e"/><path d="M1160.02 767.12l-10 7.58-10.22 7.1-10.46 6.65-10.7 6.17-10.9 5.7-11.14 5.25-11.35 4.77-11.58 4.3-11.8 3.85-12.05 3.35-12.3 2.88-12.53 2.4-12.82 1.88-13.1 1.4-13.38.83-12.68.26-.04-2 12.64-.27 13.3-.84 13-1.37 12.73-1.88 12.46-2.38 12.22-2.86 11.96-3.33 11.73-3.8 11.5-4.3 11.3-4.73 11.05-5.2 10.84-5.67 10.6-6.13 10.4-6.6 10.16-7.06 9.92-7.53 6.2-5.14h3.15zm123.03-250.47l-.23 5.53-1.32 15.75-1.96 15.48-2.57 15.2-3.16 14.9-3.73 14.57-4.3 14.23-4.82 13.86-5.34 13.48-5.8 13.08-6.3 12.67-6.73 12.23-7.14 11.8-7.54 11.35-7.92 10.9-8.26 10.42-8.6 9.95-6.6 7.03H1188l7.86-8.37 8.53-9.88 8.2-10.36 7.87-10.82 7.5-11.28 7.1-11.73 6.7-12.16 6.24-12.6 5.8-13 5.3-13.4 4.8-13.8 4.26-14.14 3.72-14.5 3.15-14.8 2.57-15.1 1.94-15.4 1.32-15.68.23-5.5z" fill="#5e5e5e"/><path d="M973.04 831.5l-1.05.02v-2l1-.03zM1286.7 515.74l-9.25-.26 5.03-14.13z" fill="#5e5e5e"/><path d="M1288.06 516.78l-12.02-.34 6.53-18.33zm-9.2-2.26l6.5.18-2.97-10.12z" fill="#5e5e5e"/><use xlink:href="#e" transform="matrix(1,0,0,1,1100.4840874494685,739.0765857989973) translate(0.0049999999999954525 14.222222222222223)"/><use xlink:href="#f" transform="matrix(1,0,0,1,1100.4840874494685,739.0765857989973) translate(125.19018518518519 14.222222222222223)"/><use xlink:href="#g" transform="matrix(1,0,0,1,1100.4840874494685,739.0765857989973) translate(140.49882716049382 14.222222222222223)"/><path d="M556.98 739.2l7.66 8.87 7.8 8.3 7.9 7.74 8 7.23 8.13 6.72 8.2 6.23 8.33 5.8 8.43 5.33 8.54 4.95 8.66 4.53 8.8 4.13 8.94 3.77 9.1 3.4 9.28 3 9.48 2.65 9.7 2.27 9.94 1.9 10.2 1.5 10.5 1.1 10.85.68 10.23.22-.04 2-10.26-.22-10.92-.7-10.6-1.1-10.3-1.52-10-1.9-9.8-2.3-9.55-2.67-9.36-3.05-9.17-3.42-9.02-3.8-8.86-4.16-8.74-4.57-8.6-4.97-8.5-5.4-8.4-5.83-8.28-6.3-8.18-6.76-8.07-7.27-7.97-7.8-7.85-8.36-7.72-8.94-5.03-6.35h2.55zM478.4 525.9l1.55 18.28 2.27 17.95 2.96 17.53 3.6 17.02 4.23 16.43 4.78 15.8 5.26 15.1 5.7 14.4 6.08 13.68 6.42 12.94 6.7 12.2 6.97 11.5 2.68 4.04h-2.4l-1.96-2.96-7-11.57-6.75-12.28-6.46-13-6.1-13.76-5.74-14.46-5.28-15.2-4.8-15.87-4.23-16.5-3.64-17.1-2.96-17.63-2.28-18.03-1.54-18.36-.4-9.4 2-.08z" fill="#5e5e5e"/><path d="M746.64 829.52v2l-1.05-.03.03-2zM481.63 515.5l-9.27.23 4.27-14.38z" fill="#5e5e5e"/><path d="M483.03 516.45l-12.02.3 5.54-18.64zm-9.32-1.76l6.53-.18-3.52-9.94z" fill="#5e5e5e"/><use xlink:href="#h" transform="matrix(1,0,0,1,490.8849395493998,712.7761615022057) translate(0.005000000000002558 14.222222222222223)"/><use xlink:href="#i" transform="matrix(1,0,0,1,490.8849395493998,712.7761615022057) translate(35.51117283950618 14.222222222222223)"/><path d="M362.87 436.3h-33c-3.32 0-6-2.7-6-6v-89.83c0-3.3 2.68-6 6-6h140.67c3.32 0 6 2.7 6 6v15.5" stroke="#5e5e5e" stroke-width="2" fill="none"/><path d="M363.87 437.3h-1.03v-2h1.03z" fill="#5e5e5e"/><path d="M476.54 371.23l-4.63-14.26h9.28z" stroke="#5e5e5e" stroke-width="2" fill="#5e5e5e"/><use xlink:href="#j" transform="matrix(1,0,0,1,322.13865166392617,309.13720264956686) translate(0.0049999999999954525 14.222222222222223)"/><use xlink:href="#k" transform="matrix(1,0,0,1,322.13865166392617,309.13720264956686) translate(44.30129629629629 14.222222222222223)"/><use xlink:href="#l" transform="matrix(1,0,0,1,322.13865166392617,309.13720264956686) translate(88.59759259259259 14.222222222222223)"/><path d="M1390.2 383.73h33c3.3 0 6-2.68 6-6v-37.26c0-3.3-2.7-6-6-6h-134.63c-3.3 0-6 2.7-6 6v15.5" stroke="#5e5e5e" stroke-width="2" fill="none"/><path d="M1390.22 384.73h-.14l-1.78-2h1.92z" fill="#5e5e5e"/><path d="M1282.57 371.23l-4.63-14.26h9.27z" stroke="#5e5e5e" stroke-width="2" fill="#5e5e5e"/><use xlink:href="#m" transform="matrix(1,0,0,1,1333.159510401307,309.58930865450236) translate(0.0049999999999954525 14.222222222222223)"/><use xlink:href="#n" transform="matrix(1,0,0,1,1333.159510401307,309.58930865450236) translate(60.992654320987654 14.222222222222223)"/><use xlink:href="#o" transform="matrix(1,0,0,1,1333.159510401307,309.58930865450236) translate(125.04203703703705 14.222222222222223)"/><use xlink:href="#p" transform="matrix(1,0,0,1,1333.159510401307,309.58930865450236) translate(164.4000617283951 14.222222222222223)"/><path d="M760.4 770.58l-2.9-5.26-2.78-5.65-2.32-5.23-1.9-4.85-1.58-4.55-1.28-4.25-1.02-4-.8-3.8-.6-3.58-.42-3.42-.27-3.27-.13-3.13v-3l.14-2.92.24-2.8.35-2.74.45-2.66.56-2.6.66-2.53.75-2.48.86-2.44.96-2.4 1.07-2.38 1.17-2.34 1.28-2.32 1.4-2.3 1.54-2.3 1.66-2.28 1.8-2.27 1.98-2.27 2.13-2.27 2.3-2.27 2.52-2.25 2.74-2.25 2.96-2.24 3.22-2.24 3.5-2.2 3.8-2.18 4.1-2.14 4.44-2.08 4.8-2 5.2-1.92 5.54-1.8 5.93-1.63 6.3-1.46 6.63-1.24 6.9-1 7.17-.75 7.3-.44 7.4-.13 7.4.17 7.3.47 7.1.77 6.9 1.03 6.58 1.27 6.26 1.48 5.9 1.66 5.53 1.82 5.18 1.94 4.83 2.03 4.47 2.1 4.15 2.2 3.84 2.22 3.55 2.26 3.3 2.3 3.03 2.32 2.82 2.34 2.6 2.35 2.42 2.36 2.23 2.4 2.06 2.4 1.92 2.4 1.76 2.44 1.63 2.46 1.5 2.5 1.4 2.5 1.25 2.56 1.15 2.6 1.04 2.64.93 2.7.82 2.74.7 2.83.62 2.9.5 2.98.4 3.1.25 3.2.13 3.32v3.45l-.17 3.62-.32 3.78-.5 4-.73 4.2-.96 4.48-1.22 4.76-1.26 4.12" stroke="#5e5e5e" stroke-width="2" fill="none"/><path d="M761.74 770.97l-1.74 1-.5-.93 1.76-.96z" fill="#5e5e5e"/><path d="M958.87 768.45l.87-14.98 8.64 3.38z" stroke="#5e5e5e" stroke-width="2" fill="#5e5e5e"/><use xlink:href="#m" transform="matrix(1,0,0,1,751.0671897543426,614.7554099011903) translate(0.0049999999999954525 14.222222222222223)"/><use xlink:href="#n" transform="matrix(1,0,0,1,751.0671897543426,614.7554099011903) translate(60.992654320987654 14.222222222222223)"/><use xlink:href="#o" transform="matrix(1,0,0,1,751.0671897543426,614.7554099011903) translate(125.04203703703705 14.222222222222223)"/><use xlink:href="#p" transform="matrix(1,0,0,1,751.0671897543426,614.7554099011903) translate(164.4000617283951 14.222222222222223)"/><path d="M1073.82 780.62l-.92 3.4-2.53 2.54-3.42.93h-77.8v-2h77.54l2.63-.73 1.77-1.77.72-2.65V566.2h2zM1174 488.77h-95.05l-2.64.72-1.77 1.76-.7 2.65v50.98h-2v-51.24l.9-3.4 2.54-2.54 3.42-.93h95.3z" fill="#5e5e5e"/><path d="M1174.67 487.4l1.22 1.37h-1.92v-2h.33zM988.14 791.12l-14.27-4.63 14.27-4.65z" fill="#5e5e5e"/><path d="M989.14 792.5l-18.5-6 18.5-6.03zm-12.03-6l10.04 3.25v-6.52z" fill="#5e5e5e"/><use xlink:href="#q" transform="matrix(1,0,0,1,942.2264207321186,544.8812716942195) translate(0.0049999999999954525 14.222222222222223)"/><use xlink:href="#r" transform="matrix(1,0,0,1,942.2264207321186,544.8812716942195) translate(101.53586419753086 14.222222222222223)"/><use xlink:href="#s" transform="matrix(1,0,0,1,942.2264207321186,544.8812716942195) translate(183.36302469135802 14.222222222222223)"/><path d="M666.4 798.48l.7 2.65 1.78 1.77 2.64.72h56.62v2h-56.88l-3.42-.93-2.52-2.54-.93-3.4V576.43h2zm-3.46-310.98l2.53 2.53.92 3.4v61.68h-2v-61.4l-.72-2.63-1.78-1.78-2.64-.72h-74.1v-2h74.36z" fill="#5e5e5e"/><path d="M585.17 488.58h-1.77l1.5-2h.27zM743.4 804.62l-14.26 4.63v-9.27z" fill="#5e5e5e"/><path d="M746.64 804.62l-18.5 6v-12zm-16.5 3.26l10.03-3.26-10.03-3.26z" fill="#5e5e5e"/><use xlink:href="#t" transform="matrix(1,0,0,1,524.8730136215731,555.1100491359373) translate(0.0049999999999954525 14.222222222222223)"/><use xlink:href="#u" transform="matrix(1,0,0,1,524.8730136215731,555.1100491359373) translate(111.46179012345681 14.222222222222223)"/><use xlink:href="#v" transform="matrix(1,0,0,1,524.8730136215731,555.1100491359373) translate(186.47413580246916 14.222222222222223)"/><path d="M244.13 270.55c0-3.3 2.68-6 6-6H1734c3.32 0 6 2.7 6 6v828.8c0 3.3-2.68 6-6 6H250.14c-3.32 0-6-2.7-6-6z" stroke="#5e5e5e" stroke-width="3" fill-opacity="0"/><path d="M137.17 190.12l-2.98 3.1-.77.85-3.32 3.85-3.15 3.98-3 4.12-2.82 4.25-2.66 4.4-2.5 4.54-2.33 4.7-2.16 4.86-1.98 5-1.8 5.16-1.6 5.33-1.4 5.48-1.2 5.63-.98 5.8-.75 5.9-.5 6.07-.27 6.18v6.3l.27 6.37.54 6.43.83 6.48 1.1 6.5 1.37 6.46 1.65 6.44 1.92 6.37 2.2 6.27 2.42 6.15 2.67 6 2.9 5.84 3.1 5.67 3.3 5.45 3.5 5.25 3.64 5.03 3.8 4.8 3.96 4.56 4.07 4.34 4.2 4.1 4.3 3.9 4.4 3.64 4.53 3.42 4.6 3.2 4.7 3 4.82 2.77 4.9 2.56 5 2.34 5.1 2.15 5.2 1.92 5.33 1.73 5.46 1.53 5.57 1.3 5.72 1.1 5.88.86 6.04.64 6.23.4 5.44.1-.04 2-5.5-.1-6.3-.4-6.12-.65-5.96-.88-5.8-1.1-5.66-1.34-5.53-1.53-5.4-1.76-5.3-1.95-5.17-2.18-5.07-2.4-5-2.6-4.86-2.8-4.78-3.03-4.68-3.26-4.58-3.47-4.47-3.7-4.37-3.93-4.26-4.17-4.13-4.4-4-4.63-3.85-4.87-3.7-5.1-3.53-5.3-3.36-5.53-3.15-5.73-2.94-5.9-2.7-6.1-2.48-6.22-2.2-6.35-1.95-6.45-1.68-6.52-1.4-6.56-1.1-6.57-.83-6.56-.55-6.5-.27-6.46v-6.37l.26-6.26.52-6.14.76-6 1-5.87 1.2-5.73 1.43-5.56 1.63-5.4 1.83-5.24 2-5.08 2.2-4.92 2.37-4.77 2.54-4.63 2.7-4.47 2.88-4.32 3.04-4.2 3.2-4.03 3.38-3.9.8-.88 1.77-1.86h2.8zm140.46-45.46l10.45.76 10.23 1.17 9.9 1.54 9.48 1.9 9 2.2 8.5 2.46 7.98 2.67 7.45 2.85 6.93 3 6.42 3.08 5.95 3.18 5.5 3.25 5.1 3.3 4.7 3.33 4.33 3.35 4 3.4 3.72 3.4 3.42 3.4 3.16 3.43 2.92 3.45 2.7 3.46 2.48 3.5 2.28 3.5 2.12 3.55 1.92 3.57L420 221l1.6 3.68 1.43 3.74 1.3 3.8 1.12 3.9.98 3.96.83 4.07.05.34-1.96.3-.05-.3-.82-3.98-.96-3.9-1.1-3.8-1.27-3.73-1.4-3.66-1.57-3.6-1.72-3.56-1.9-3.5-2.05-3.48-2.23-3.44-2.43-3.42-2.64-3.4-2.87-3.38-3.1-3.37-3.37-3.36-3.64-3.34-3.94-3.33-4.28-3.3-4.63-3.3-5-3.24-5.45-3.2-5.87-3.14-6.35-3.07-6.85-2.96-7.36-2.8-7.9-2.66-8.42-2.42-8.93-2.18-9.4-1.9-9.8-1.53-10.15-1.16-10.38-.74-10.48-.32-10.48.12-10.34.55-10.1.97-9.72 1.35-9.3 1.68-8.82 1.98-8.3 2.23-7.75 2.45-7.22 2.6-6.68 2.74-6.2 2.83-5.56 2.85h-4.1l3-1.7 5.8-2.95 6.26-2.88 6.78-2.77 7.3-2.63 7.83-2.46 8.37-2.26 8.9-2 9.38-1.7 9.82-1.35 10.17-.98 10.43-.56 10.56-.12z" fill="#5e5e5e"/><path d="M242.63 430.7v2l-1.06-.02.05-2zM427.64 259.83l-5.85-13.8 9.23-.8z" fill="#5e5e5e"/><path d="M427.92 263.05l-7.6-17.9 12-1.05zm-4.67-16.16l4.1 9.7 2.4-10.27z" fill="#5e5e5e"/><use xlink:href="#w" transform="matrix(1,0,0,1,7.157562307455748,168.67555023899976) translate(0.0049999999999954525 14.222222222222223)"/><use xlink:href="#x" transform="matrix(1,0,0,1,7.157562307455748,168.67555023899976) translate(111.36302469135802 14.222222222222223)"/><use xlink:href="#y" transform="matrix(1,0,0,1,7.157562307455748,168.67555023899976) translate(173.4370987654321 14.222222222222223)"/><use xlink:href="#z" transform="matrix(1,0,0,1,7.157562307455748,168.67555023899976) translate(229.58524691358025 14.222222222222223)"/><path d="M1816.6 168.42l5.33 3.4 4.87 3.4 4.47 3.4 4.13 3.42 3.8 3.45 3.55 3.46 3.28 3.5 3.05 3.56 2.85 3.6 2.64 3.66 2.47 3.73 2.3 3.8 2.12 3.9 1.98 4 1.82 4.13 1.68 4.26 1.52 4.4 1.38 4.58 1.2 4.77 1.06 5 .88 5.24.68 5.52.48 5.85.25 6.2-.03 6.62-.3 7.1-.67 7.6-1.06 8.26-1.54 8.96-2.1 9.77-2.78 10.72-3 9.88-3.18 9.17-3.22 8.15-3.24 7.3-3.26 6.54-3.25 5.94-3.27 5.4-3.28 4.92-3.28 4.53-3.3 4.17-3.33 3.85-3.34 3.57-3.38 3.3-3.43 3.1-3.48 2.88-3.54 2.7-3.6 2.5-3.7 2.34-3.8 2.2-3.9 2.03-4.03 1.9-4.17 1.74-4.34 1.6-4.53 1.48-4.73 1.32-4.97 1.17-5.25 1-5.56.83-5.9.62-6.34.4-5.8.1-.03-2 5.73-.1 6.25-.4 5.83-.6 5.5-.82 5.15-.98 4.9-1.15 4.65-1.3 4.44-1.44 4.25-1.58 4.1-1.72 3.94-1.86 3.83-2 3.7-2.15 3.64-2.3 3.55-2.46 3.48-2.65 3.4-2.82 3.38-3.04 3.33-3.26 3.3-3.5 3.26-3.8 3.24-4.1 3.24-4.46 3.23-4.86 3.23-5.32 3.22-5.86 3.22-6.48 3.2-7.2 3.2-8.08 3.16-9.1 2.96-9.8 2.76-10.65 2.08-9.7 1.52-8.87 1.05-8.16.66-7.54.3-7 .03-6.55-.25-6.1-.48-5.78-.67-5.44-.86-5.16-1.04-4.9-1.2-4.7-1.34-4.5-1.5-4.34-1.64-4.18-1.8-4.04-1.93-3.93-2.1-3.82-2.25-3.73-2.42-3.65-2.6-3.6-2.8-3.53-3-3.5-3.2-3.44-3.5-3.4-3.74-3.4-4.07-3.38-4.4-3.36-4.8-3.35-5.26-3.34-5.76-3.34-.85-.46h4.07zm-113.08-31.9l7.3.3 8.1.7 9.14 1.17 10.43 1.77 12.1 2.6 7.48 1.93h-8l-11.97-2.57-10.33-1.76-9.06-1.16-8.02-.68-7.2-.3-6.55-.02-5.98.24-5.5.45-5.14.63-4.78.8-4.5.96-4.28 1.08-4.06 1.22-3.9 1.35-3.72 1.47-3.6 1.6-3.5 1.73-3.4 1.86-3.33 2.03-1.4.9-6.43 4.44-4.78 3.63-3.87 3.24-3.28 3-2.87 2.9-2.57 2.83-2.33 2.82-2.15 2.86-2 2.94-1.9 3.06-1.8 3.22-1.7 3.43-1.62 3.72-1.57 4.05-1.5 4.5-1.44 5.05-1.37 5.8-1.27 6.77-1.14 8.1-.94 10.03-.16 3.38-2-.08.17-3.43.95-10.12 1.16-8.2 1.3-6.88 1.38-5.9 1.46-5.13 1.54-4.58 1.6-4.14 1.67-3.8 1.74-3.5 1.83-3.3 1.93-3.15 2.06-3 2.2-2.94 2.4-2.9 2.63-2.9 2.93-2.95 3.35-3.07 3.94-3.3 4.85-3.68 6.5-4.48 1.45-.94 3.4-2.05 3.47-1.9 3.57-1.77 3.7-1.62 3.8-1.5 3.96-1.38 4.14-1.25 4.35-1.1 4.6-.98 4.87-.8 5.2-.67 5.6-.46 6.07-.24z" fill="#5e5e5e"/><path d="M1742.56 434.36l-1.05.02v-2l1-.02zM1596.75 245.7l-5.07 14.12-4.2-14.4z" fill="#5e5e5e"/><path d="M1598.15 244.74l-6.57 18.3-5.45-18.66zm-6.37 11.84l3.56-9.92-6.52-.2z" fill="#5e5e5e"/><g><use xlink:href="#A" transform="matrix(1,0,0,1,1686.4320970324193,145.00290539073188) translate(0.0049999999999954525 14.222222222222223)"/><use xlink:href="#B" transform="matrix(1,0,0,1,1686.4320970324193,145.00290539073188) translate(40.449444444444445 14.222222222222223)"/><use xlink:href="#C" transform="matrix(1,0,0,1,1686.4320970324193,145.00290539073188) translate(99.4617901234568 14.222222222222223)"/><use xlink:href="#D" transform="matrix(1,0,0,1,1686.4320970324193,145.00290539073188) translate(139.90623456790124 14.222222222222223)"/><use xlink:href="#E" transform="matrix(1,0,0,1,1686.4320970324193,145.00290539073188) translate(154.72104938271605 14.222222222222223)"/></g><path d="M510.25 373.47l.02-1.15.13-2.05.2-1.95.28-1.87.35-1.8.4-1.74.47-1.67.53-1.62.6-1.57.63-1.54.7-1.5.78-1.48.83-1.43.9-1.42.95-1.4 1.04-1.35 1.1-1.34 1.2-1.34 1.28-1.3 1.38-1.3 1.47-1.27 1.58-1.27 1.7-1.23 1.84-1.22 1.97-1.2 2.1-1.16 2.3-1.13 2.45-1.1 2.64-1.05 2.83-1 3.04-.9 3.25-.84 3.47-.73 3.66-.62 3.87-.48 4.05-.34 4.2-.18h4.32l4.4.2 4.4.36 4.4.56 4.3.73 4.18.88 4.02 1.03 3.83 1.17 3.62 1.26 3.4 1.34 3.17 1.4 2.94 1.47 2.72 1.5 2.5 1.5 2.32 1.55 2.12 1.53 1.96 1.55 1.8 1.54 1.63 1.54.4.4 1.7 1.78 1.62 1.87 1.54 1.96 1.45 2.04 1.37 2.12 1.28 2.22 1.2 2.3 1.1 2.43 1 2.5.9 2.62.8 2.7.68 2.8.56 2.9.42 3 .3 3.08.14 3.15v3.2l-.16 3.26-.3 3.27-.5 3.28-.62 3.28-.8 3.25-.93 3.2-1.08 3.12-1.22 3.04-1.34 2.94-1.45 2.83-1.57 2.72-1.66 2.6-1.75 2.44-1.83 2.32-1.9 2.2-1.95 2.04-2.03 1.92-2.07 1.8-2.13 1.67-2.18 1.56-2.23 1.42-2.28 1.32-2.33 1.2-2.38 1.08-2.45.97-2.4.84" stroke="#5e5e5e" stroke-width="2" fill="none"/><path d="M511.25 373.46l-.02 1h-2l.02-1.04z" fill="#5e5e5e"/><path d="M592.42 452.97l13.4-6.73 1.4 9.17z" stroke="#5e5e5e" stroke-width="2" fill="#5e5e5e"/><g><use xlink:href="#F" transform="matrix(1,0,0,1,600.7205367624384,313.45711503403345) translate(0.0049999999999954525 14.222222222222223)"/><use xlink:href="#k" transform="matrix(1,0,0,1,600.7205367624384,313.45711503403345) translate(52.3012962962963 14.222222222222223)"/><use xlink:href="#l" transform="matrix(1,0,0,1,600.7205367624384,313.45711503403345) translate(96.5975925925926 14.222222222222223)"/></g><path d="M1257.32 373.47l-.03-1.4-.15-2.28-.24-2.22-.3-2.13-.4-2.07-.47-2.02-.54-1.96-.64-1.9-.7-1.88-.76-1.84-.85-1.8-.93-1.78-1-1.75-1.1-1.73-1.2-1.7-1.28-1.7-1.4-1.67-1.48-1.66-1.62-1.66-1.74-1.63-1.87-1.6-2.02-1.6-2.16-1.6-2.34-1.54-2.52-1.53-2.7-1.5-2.92-1.43-3.12-1.4-3.34-1.3-3.56-1.25-3.77-1.14-4-1-4.17-.9-4.36-.73-4.5-.57-4.63-.4-4.67-.2h-4.7l-4.68.2-4.6.4-4.46.56-4.33.73-4.13.87-3.93 1-3.7 1.13-3.5 1.2-3.26 1.3-3.05 1.36-2.85 1.4-2.63 1.46-2.46 1.48-2.27 1.5-2.12 1.54-1.95 1.55-1.8 1.56-1.7 1.57-.4.4-1.55 1.62-1.5 1.7-1.45 1.8-1.4 1.87-1.33 1.96-1.27 2.07-1.22 2.16-1.15 2.28-1.1 2.38-1 2.5-.95 2.6-.85 2.74-.77 2.85-.66 2.98-.56 3.1-.44 3.2-.3 3.32-.2 3.42-.03 3.5.1 3.58.27 3.63.43 3.66.58 3.67.74 3.66.9 3.62 1.02 3.56 1.17 3.48 1.3 3.38 1.42 3.27 1.52 3.14 1.6 3 1.7 2.87 1.76 2.72 1.83 2.56 1.88 2.42 1.93 2.28 1.97 2.14 2 2 2.03 1.86 2.06 1.75 2.08 1.62 2.1 1.5 2.14 1.4 2.17 1.27 2.18 1.16 2.2 1.08 2.26.97 2.28.9 2.32.77.13.03" stroke="#5e5e5e" stroke-width="2" fill="none"/><path d="M1258.34 374.47h-2l-.02-1 2-.05z" fill="#5e5e5e"/><path d="M1166.7 461.44l-14.8 2.48 1.37-9.17z" stroke="#5e5e5e" stroke-width="2" fill="#5e5e5e"/><g><use xlink:href="#G" transform="matrix(1,0,0,1,824.9648111368417,395.54482643505077) translate(0.0049999999999954525 14.222222222222223)"/><use xlink:href="#H" transform="matrix(1,0,0,1,824.9648111368417,395.54482643505077) translate(71.95561728395063 14.222222222222223)"/><use xlink:href="#I" transform="matrix(1,0,0,1,824.9648111368417,395.54482643505077) translate(107.46179012345681 14.222222222222223)"/><use xlink:href="#J" transform="matrix(1,0,0,1,824.9648111368417,395.54482643505077) translate(187.41240740740744 14.222222222222223)"/><use xlink:href="#l" transform="matrix(1,0,0,1,824.9648111368417,395.54482643505077) translate(231.70870370370375 14.222222222222223)"/></g><path d="M1348.05 499.1l.1 2.38.5 3.7.9 4.07 1.4 4.4 1.98 4.7 2.56 4.9 3.15 4.93 3.7 4.8 4.13 4.46 4.43 4.03 4.62 3.5 4.68 2.95 4.67 2.4 4.64 1.9 4.6 1.4 4.5.97 4.07.52 5.62.3 6.1-.06 6.56-.5 6.94-.96 7.14-1.48 7.1-1.95 6.8-2.35 6.24-2.6 5.5-2.74 4.66-2.72 3.9-2.6 3.16-2.44 2.57-2.25 2.06-2.06 1.66-1.88 1.3-1.7.9-1.3.92-1.6 1-1.9 1.03-2.37 1.07-2.88 1.06-3.5 1-4.17.9-4.9.64-5.52.35-5.97v-6.15l-.37-6.07-.7-5.74-.94-5.28-1.16-4.76-1.3-4.22-1.4-3.73-1.44-3.28-1.5-2.9-1.5-2.53-1.52-2.24-1.52-2-.85-1-2.43-2.6-2.77-2.62-3.18-2.65-3.66-2.67-4.2-2.7-4.88-2.7-5.63-2.66-6.5-2.6-7.4-2.43-8.3-2.15-8.92-1.73-3.12-.42" stroke="#5e5e5e" stroke-width="2" fill="none"/><path d="M1349.05 499.1l-2 .08-.04-1.07h2z" fill="#5e5e5e"/><path d="M1398.48 414.03l14.57-3.54-.7 9.23z" stroke="#5e5e5e" stroke-width="2" fill="#5e5e5e"/><g><use xlink:href="#K" transform="matrix(1,0,0,1,1360.9790151358252,507.51094398582387) translate(0.0049999999999954525 14.222222222222223)"/><use xlink:href="#L" transform="matrix(1,0,0,1,1360.9790151358252,507.51094398582387) translate(87.75808641975311 14.222222222222223)"/><use xlink:href="#M" transform="matrix(1,0,0,1,1360.9790151358252,507.51094398582387) translate(233.53586419753088 14.222222222222223)"/><use xlink:href="#N" transform="matrix(1,0,0,1,1360.9790151358252,507.51094398582387) translate(310.4247530864198 14.222222222222223)"/><use xlink:href="#O" transform="matrix(1,0,0,1,1360.9790151358252,507.51094398582387) translate(332.0543827160494 14.222222222222223)"/></g><path d="M437.73 499.1l-.16 2.96-.63 3.97-1.08 4.04-1.6 4.17-2.2 4.35-2.97 4.55-3.87 4.78-4.95 4.96-6.18 5-7.43 4.85-6.1 3.24-7.2 3.1-7.3 2.44-7 1.7-6.48 1-5.8.4-5.1-.1-4.43-.44-3.84-.73-3.34-.93-2.93-1.1-2.57-1.2-2.27-1.33-.55-.36-1.4-1-1.35-1.1-1.33-1.2-1.3-1.32-1.26-1.44-1.24-1.6-1.2-1.73-1.15-1.9-1.1-2.1-1.06-2.3-1-2.5-.87-2.72-.77-2.94-.64-3.18-.48-3.36-.3-3.55-.1-3.66.13-3.76.33-3.77.55-3.7.75-3.62.93-3.45 1.08-3.25 1.2-3.03 1.3-2.8 1.4-2.57 1.43-2.35 1.48-2.13 1.53-1.93 1.54-1.75 1.57-1.57 1.58-1.42 1.6-1.28 1.62-1.15 1.03-.64" stroke="#5e5e5e" stroke-width="2" fill="none"/><path d="M438.72 499.2l-2-.1.06-1h2z" fill="#5e5e5e"/><path d="M360.75 462.64l-12.5 8.28-2.5-8.93z" stroke="#5e5e5e" stroke-width="2" fill="#5e5e5e"/><g><use xlink:href="#P" transform="matrix(1,0,0,1,121.88632580787674,556.9987331134463) translate(0.0049999999999954525 14.222222222222223)"/><use xlink:href="#Q" transform="matrix(1,0,0,1,121.88632580787674,556.9987331134463) translate(143.06672839506177 14.222222222222223)"/><use xlink:href="#l" transform="matrix(1,0,0,1,121.88632580787674,556.9987331134463) translate(291.7580864197531 14.222222222222223)"/></g><defs><path fill="#333" d="M185-189c-5-48-123-54-124 2 14 75 158 14 163 119 3 78-121 87-175 55-17-10-28-26-33-46l33-7c5 56 141 63 141-1 0-78-155-14-162-118-5-82 145-84 179-34 5 7 8 16 11 25" id="R"/><path fill="#333" d="M59-47c-2 24 18 29 38 22v24C64 9 27 4 27-40v-127H5v-23h24l9-43h21v43h35v23H59v120" id="S"/><path fill="#333" d="M100-194c62-1 85 37 85 99 1 63-27 99-86 99S16-35 15-95c0-66 28-99 85-99zM99-20c44 1 53-31 53-75 0-43-8-75-51-75s-53 32-53 75 10 74 51 75" id="T"/><path fill="#333" d="M115-194c55 1 70 41 70 98S169 2 115 4C84 4 66-9 55-30l1 105H24l-1-265h31l2 30c10-21 28-34 59-34zm-8 174c40 0 45-34 45-75s-6-73-45-74c-42 0-51 32-51 76 0 43 10 73 51 73" id="U"/><path fill="#333" d="M100-194c63 0 86 42 84 106H49c0 40 14 67 53 68 26 1 43-12 49-29l28 8c-11 28-37 45-77 45C44 4 14-33 15-96c1-61 26-98 85-98zm52 81c6-60-76-77-97-28-3 7-6 17-6 28h103" id="V"/><path fill="#333" d="M85-194c31 0 48 13 60 33l-1-100h32l1 261h-30c-2-10 0-23-3-31C134-8 116 4 85 4 32 4 16-35 15-94c0-66 23-100 70-100zm9 24c-40 0-46 34-46 75 0 40 6 74 45 74 42 0 51-32 51-76 0-42-9-74-50-73" id="W"/><g id="a"><use transform="matrix(0.06172839506172839,0,0,0.06172839506172839,0,0)" xlink:href="#R"/><use transform="matrix(0.06172839506172839,0,0,0.06172839506172839,14.814814814814813,0)" xlink:href="#S"/><use transform="matrix(0.06172839506172839,0,0,0.06172839506172839,20.98765432098765,0)" xlink:href="#T"/><use transform="matrix(0.06172839506172839,0,0,0.06172839506172839,33.33333333333333,0)" xlink:href="#U"/><use transform="matrix(0.06172839506172839,0,0,0.06172839506172839,45.679012345679006,0)" xlink:href="#U"/><use transform="matrix(0.06172839506172839,0,0,0.06172839506172839,58.02469135802468,0)" xlink:href="#V"/><use transform="matrix(0.06172839506172839,0,0,0.06172839506172839,70.37037037037037,0)" xlink:href="#W"/></g><path fill="#333" d="M24-231v-30h32v30H24zM24 0v-190h32V0H24" id="X"/><path fill="#333" d="M24 0v-261h32V0H24" id="Y"/><g id="b"><use transform="matrix(0.06172839506172839,0,0,0.06172839506172839,0,0)" xlink:href="#R"/><use transform="matrix(0.06172839506172839,0,0,0.06172839506172839,14.814814814814813,0)" xlink:href="#T"/><use transform="matrix(0.06172839506172839,0,0,0.06172839506172839,27.160493827160494,0)" xlink:href="#X"/><use transform="matrix(0.06172839506172839,0,0,0.06172839506172839,32.03703703703704,0)" xlink:href="#Y"/></g><path fill="#333" d="M205 0l-28-72H64L36 0H1l101-248h38L239 0h-34zm-38-99l-47-123c-12 45-31 82-46 123h93" id="Z"/><path fill="#333" d="M117-194c89-4 53 116 60 194h-32v-121c0-31-8-49-39-48C34-167 62-67 57 0H25l-1-190h30c1 10-1 24 2 32 11-22 29-35 61-36" id="aa"/><path fill="#333" d="M141-36C126-15 110 5 73 4 37 3 15-17 15-53c-1-64 63-63 125-63 3-35-9-54-41-54-24 1-41 7-42 31l-33-3c5-37 33-52 76-52 45 0 72 20 72 64v82c-1 20 7 32 28 27v20c-31 9-61-2-59-35zM48-53c0 20 12 33 32 33 41-3 63-29 60-74-43 2-92-5-92 41" id="ab"/><path fill="#333" d="M179-190L93 31C79 59 56 82 12 73V49c39 6 53-20 64-50L1-190h34L92-34l54-156h33" id="ac"/><path fill="#333" d="M135-143c-3-34-86-38-87 0 15 53 115 12 119 90S17 21 10-45l28-5c4 36 97 45 98 0-10-56-113-15-118-90-4-57 82-63 122-42 12 7 21 19 24 35" id="ad"/><g id="c"><use transform="matrix(0.06172839506172839,0,0,0.06172839506172839,0,0)" xlink:href="#Z"/><use transform="matrix(0.06172839506172839,0,0,0.06172839506172839,14.814814814814813,0)" xlink:href="#aa"/><use transform="matrix(0.06172839506172839,0,0,0.06172839506172839,27.160493827160494,0)" xlink:href="#ab"/><use transform="matrix(0.06172839506172839,0,0,0.06172839506172839,39.50617283950617,0)" xlink:href="#Y"/><use transform="matrix(0.06172839506172839,0,0,0.06172839506172839,44.382716049382715,0)" xlink:href="#ac"/><use transform="matrix(0.06172839506172839,0,0,0.06172839506172839,55.49382716049382,0)" xlink:href="#ad"/><use transform="matrix(0.06172839506172839,0,0,0.06172839506172839,66.60493827160494,0)" xlink:href="#X"/><use transform="matrix(0.06172839506172839,0,0,0.06172839506172839,71.48148148148148,0)" xlink:href="#ad"/></g><path fill="#333" d="M30-248c118-7 216 8 213 122C240-48 200 0 122 0H30v-248zM63-27c89 8 146-16 146-99s-60-101-146-95v194" id="ae"/><path fill="#333" d="M114-163C36-179 61-72 57 0H25l-1-190h30c1 12-1 29 2 39 6-27 23-49 58-41v29" id="af"/><path fill="#333" d="M108 0H70L1-190h34L89-25l56-165h34" id="ag"/><path fill="#333" d="M177-190C167-65 218 103 67 71c-23-6-38-20-44-43l32-5c15 47 100 32 89-28v-30C133-14 115 1 83 1 29 1 15-40 15-95c0-56 16-97 71-98 29-1 48 16 59 35 1-10 0-23 2-32h30zM94-22c36 0 50-32 50-73 0-42-14-75-50-75-39 0-46 34-46 75s6 73 46 73" id="ah"/><g id="d"><use transform="matrix(0.06172839506172839,0,0,0.06172839506172839,0,0)" xlink:href="#ae"/><use transform="matrix(0.06172839506172839,0,0,0.06172839506172839,15.987654320987653,0)" xlink:href="#af"/><use transform="matrix(0.06172839506172839,0,0,0.06172839506172839,23.333333333333332,0)" xlink:href="#X"/><use transform="matrix(0.06172839506172839,0,0,0.06172839506172839,28.209876543209873,0)" xlink:href="#ag"/><use transform="matrix(0.06172839506172839,0,0,0.06172839506172839,39.32098765432099,0)" xlink:href="#X"/><use transform="matrix(0.06172839506172839,0,0,0.06172839506172839,44.19753086419753,0)" xlink:href="#aa"/><use transform="matrix(0.06172839506172839,0,0,0.06172839506172839,56.54320987654321,0)" xlink:href="#ah"/></g><path fill="#333" d="M88-194c31-1 46 15 58 34l-1-101h50l1 261h-48c-2-10 0-23-3-31C134-8 116 4 84 4 32 4 16-41 15-95c0-56 19-97 73-99zm17 164c33 0 40-30 41-66 1-37-9-64-41-64s-38 30-39 65c0 43 13 65 39 65" id="ai"/><path fill="#333" d="M135-150c-39-12-60 13-60 57V0H25l-1-190h47c2 13-1 29 3 40 6-28 27-53 61-41v41" id="aj"/><path fill="#333" d="M25-224v-37h50v37H25zM25 0v-190h50V0H25" id="ak"/><path fill="#333" d="M128 0H69L1-190h53L99-40l48-150h52" id="al"/><path fill="#333" d="M185-48c-13 30-37 53-82 52C43 2 14-33 14-96s30-98 90-98c62 0 83 45 84 108H66c0 31 8 55 39 56 18 0 30-7 34-22zm-45-69c5-46-57-63-70-21-2 6-4 13-4 21h74" id="am"/><path fill="#333" d="M20 75v-336h95v34H67V41h48v34H20" id="an"/><path fill="#333" d="M137-138c1-29-70-34-71-4 15 46 118 7 119 86 1 83-164 76-172 9l43-7c4 19 20 25 44 25 33 8 57-30 24-41C81-84 22-81 20-136c-2-80 154-74 161-7" id="ao"/><path fill="#333" d="M115-3C79 11 28 4 28-45v-112H4v-33h27l15-45h31v45h36v33H77v99c-1 23 16 31 38 25v30" id="ap"/><path fill="#333" d="M133-34C117-15 103 5 69 4 32 3 11-16 11-54c-1-60 55-63 116-61 1-26-3-47-28-47-18 1-26 9-28 27l-52-2c7-38 36-58 82-57s74 22 75 68l1 82c-1 14 12 18 25 15v27c-30 8-71 5-69-32zm-48 3c29 0 43-24 42-57-32 0-66-3-65 30 0 17 8 27 23 27" id="aq"/><path fill="#333" d="M135-194c87-1 58 113 63 194h-50c-7-57 23-157-34-157-59 0-34 97-39 157H25l-1-190h47c2 12-1 28 3 38 12-26 28-41 61-42" id="ar"/><path fill="#333" d="M190-63c-7 42-38 67-86 67-59 0-84-38-90-98-12-110 154-137 174-36l-49 2c-2-19-15-32-35-32-30 0-35 28-38 64-6 74 65 87 74 30" id="as"/><g id="e"><use transform="matrix(0.04938271604938272,0,0,0.04938271604938272,0,0)" xlink:href="#ai"/><use transform="matrix(0.04938271604938272,0,0,0.04938271604938272,10.814814814814815,0)" xlink:href="#aj"/><use transform="matrix(0.04938271604938272,0,0,0.04938271604938272,17.728395061728396,0)" xlink:href="#ak"/><use transform="matrix(0.04938271604938272,0,0,0.04938271604938272,22.666666666666668,0)" xlink:href="#al"/><use transform="matrix(0.04938271604938272,0,0,0.04938271604938272,32.543209876543216,0)" xlink:href="#am"/><use transform="matrix(0.04938271604938272,0,0,0.04938271604938272,42.41975308641976,0)" xlink:href="#an"/><use transform="matrix(0.04938271604938272,0,0,0.04938271604938272,48.296296296296305,0)" xlink:href="#ai"/><use transform="matrix(0.04938271604938272,0,0,0.04938271604938272,59.111111111111114,0)" xlink:href="#ak"/><use transform="matrix(0.04938271604938272,0,0,0.04938271604938272,64.0493827160494,0)" xlink:href="#ao"/><use transform="matrix(0.04938271604938272,0,0,0.04938271604938272,73.92592592592594,0)" xlink:href="#ap"/><use transform="matrix(0.04938271604938272,0,0,0.04938271604938272,79.80246913580248,0)" xlink:href="#aq"/><use transform="matrix(0.04938271604938272,0,0,0.04938271604938272,89.67901234567903,0)" xlink:href="#ar"/><use transform="matrix(0.04938271604938272,0,0,0.04938271604938272,100.49382716049384,0)" xlink:href="#as"/><use transform="matrix(0.04938271604938272,0,0,0.04938271604938272,110.37037037037038,0)" xlink:href="#am"/></g><path fill="#333" d="M15-22v-40l146-57-146-57v-40l181 69v56" id="at"/><use transform="matrix(0.04938271604938272,0,0,0.04938271604938272,0,0)" xlink:href="#at" id="f"/><path fill="#333" d="M101-251c68 0 84 54 84 127C185-50 166 4 99 4S15-52 14-124c-1-75 17-127 87-127zm-1 216c37-5 36-46 36-89s4-89-36-89c-39 0-36 45-36 89 0 43-3 85 36 89" id="au"/><path fill="#333" d="M4 75V41h49v-268H4v-34h96V75H4" id="av"/><g id="g"><use transform="matrix(0.04938271604938272,0,0,0.04938271604938272,0,0)" xlink:href="#au"/><use transform="matrix(0.04938271604938272,0,0,0.04938271604938272,9.876543209876544,0)" xlink:href="#av"/></g><path fill="#333" d="M110-194c64 0 96 36 96 99 0 64-35 99-97 99-61 0-95-36-95-99 0-62 34-99 96-99zm-1 164c35 0 45-28 45-65 0-40-10-65-43-65-34 0-45 26-45 65 0 36 10 65 43 65" id="aw"/><path fill="#333" d="M25 0v-261h50V0H25" id="ax"/><g id="h"><use transform="matrix(0.04938271604938272,0,0,0.04938271604938272,0,0)" xlink:href="#ao"/><use transform="matrix(0.04938271604938272,0,0,0.04938271604938272,9.876543209876544,0)" xlink:href="#aw"/><use transform="matrix(0.04938271604938272,0,0,0.04938271604938272,20.69135802469136,0)" xlink:href="#ak"/><use transform="matrix(0.04938271604938272,0,0,0.04938271604938272,25.629629629629633,0)" xlink:href="#ax"/></g><path fill="#333" d="M123 10C108 53 80 86 19 72V37c35 8 53-11 59-39L3-190h52l48 148c12-52 28-100 44-148h51" id="ay"/><g id="i"><use transform="matrix(0.04938271604938272,0,0,0.04938271604938272,0,0)" xlink:href="#aq"/><use transform="matrix(0.04938271604938272,0,0,0.04938271604938272,9.876543209876544,0)" xlink:href="#ar"/><use transform="matrix(0.04938271604938272,0,0,0.04938271604938272,20.69135802469136,0)" xlink:href="#aq"/><use transform="matrix(0.04938271604938272,0,0,0.04938271604938272,30.567901234567906,0)" xlink:href="#ax"/><use transform="matrix(0.04938271604938272,0,0,0.04938271604938272,35.50617283950618,0)" xlink:href="#ay"/><use transform="matrix(0.04938271604938272,0,0,0.04938271604938272,45.38271604938272,0)" xlink:href="#ao"/><use transform="matrix(0.04938271604938272,0,0,0.04938271604938272,55.25925925925927,0)" xlink:href="#ak"/><use transform="matrix(0.04938271604938272,0,0,0.04938271604938272,60.19753086419754,0)" xlink:href="#ao"/></g><path fill="#333" d="M85 4C-2 5 27-109 22-190h50c7 57-23 150 33 157 60-5 35-97 40-157h50l1 190h-47c-2-12 1-28-3-38-12 25-28 42-61 42" id="az"/><path fill="#333" d="M4 7l51-268h42L46 7H4" id="aA"/><g id="j"><use transform="matrix(0.04938271604938272,0,0,0.04938271604938272,0,0)" xlink:href="#ap"/><use transform="matrix(0.04938271604938272,0,0,0.04938271604938272,5.8765432098765435,0)" xlink:href="#az"/><use transform="matrix(0.04938271604938272,0,0,0.04938271604938272,16.691358024691358,0)" xlink:href="#aj"/><use transform="matrix(0.04938271604938272,0,0,0.04938271604938272,23.604938271604937,0)" xlink:href="#ar"/><use transform="matrix(0.04938271604938272,0,0,0.04938271604938272,34.41975308641975,0)" xlink:href="#aA"/></g><path fill="#333" d="M135-194c53 0 70 44 70 98 0 56-19 98-73 100-31 1-45-17-59-34 3 33 2 69 2 105H25l-1-265h48c2 10 0 23 3 31 11-24 29-35 60-35zM114-30c33 0 39-31 40-66 0-38-9-64-40-64-56 0-55 130 0 130" id="aB"/><g id="k"><use transform="matrix(0.04938271604938272,0,0,0.04938271604938272,0,0)" xlink:href="#aB"/><use transform="matrix(0.04938271604938272,0,0,0.04938271604938272,10.814814814814815,0)" xlink:href="#aj"/><use transform="matrix(0.04938271604938272,0,0,0.04938271604938272,17.728395061728396,0)" xlink:href="#ak"/><use transform="matrix(0.04938271604938272,0,0,0.04938271604938272,22.666666666666668,0)" xlink:href="#ar"/><use transform="matrix(0.04938271604938272,0,0,0.04938271604938272,33.48148148148148,0)" xlink:href="#ap"/></g><g id="l"><use transform="matrix(0.04938271604938272,0,0,0.04938271604938272,0,0)" xlink:href="#am"/><use transform="matrix(0.04938271604938272,0,0,0.04938271604938272,9.876543209876544,0)" xlink:href="#aj"/><use transform="matrix(0.04938271604938272,0,0,0.04938271604938272,16.790123456790127,0)" xlink:href="#aj"/><use transform="matrix(0.04938271604938272,0,0,0.04938271604938272,23.70370370370371,0)" xlink:href="#aw"/><use transform="matrix(0.04938271604938272,0,0,0.04938271604938272,34.518518518518526,0)" xlink:href="#aj"/></g><g id="m"><use transform="matrix(0.04938271604938272,0,0,0.04938271604938272,0,0)" xlink:href="#ap"/><use transform="matrix(0.04938271604938272,0,0,0.04938271604938272,5.8765432098765435,0)" xlink:href="#az"/><use transform="matrix(0.04938271604938272,0,0,0.04938271604938272,16.691358024691358,0)" xlink:href="#aj"/><use transform="matrix(0.04938271604938272,0,0,0.04938271604938272,23.604938271604937,0)" xlink:href="#ar"/><use transform="matrix(0.04938271604938272,0,0,0.04938271604938272,34.41975308641975,0)" xlink:href="#an"/><use transform="matrix(0.04938271604938272,0,0,0.04938271604938272,40.2962962962963,0)" xlink:href="#ak"/><use transform="matrix(0.04938271604938272,0,0,0.04938271604938272,45.23456790123457,0)" xlink:href="#ar"/></g><path fill="#333" d="M195-6C206 82 75 100 31 46c-4-6-6-13-8-21l49-6c3 16 16 24 34 25 40 0 42-37 40-79-11 22-30 35-61 35-53 0-70-43-70-97 0-56 18-96 73-97 30 0 46 14 59 34l2-30h47zm-90-29c32 0 41-27 41-63 0-35-9-62-40-62-32 0-39 29-40 63 0 36 9 62 39 62" id="aC"/><g id="n"><use transform="matrix(0.04938271604938272,0,0,0.04938271604938272,0,0)" xlink:href="#aj"/><use transform="matrix(0.04938271604938272,0,0,0.04938271604938272,6.913580246913581,0)" xlink:href="#aq"/><use transform="matrix(0.04938271604938272,0,0,0.04938271604938272,16.790123456790127,0)" xlink:href="#ar"/><use transform="matrix(0.04938271604938272,0,0,0.04938271604938272,27.604938271604947,0)" xlink:href="#aC"/><use transform="matrix(0.04938271604938272,0,0,0.04938271604938272,38.41975308641976,0)" xlink:href="#am"/><use transform="matrix(0.04938271604938272,0,0,0.04938271604938272,48.296296296296305,0)" xlink:href="#av"/><use transform="matrix(0.04938271604938272,0,0,0.04938271604938272,54.17283950617284,0)" xlink:href="#aA"/></g><g id="o"><use transform="matrix(0.04938271604938272,0,0,0.04938271604938272,0,0)" xlink:href="#ap"/><use transform="matrix(0.04938271604938272,0,0,0.04938271604938272,5.8765432098765435,0)" xlink:href="#az"/><use transform="matrix(0.04938271604938272,0,0,0.04938271604938272,16.691358024691358,0)" xlink:href="#aj"/><use transform="matrix(0.04938271604938272,0,0,0.04938271604938272,23.604938271604937,0)" xlink:href="#ar"/></g><g id="p"><use transform="matrix(0.04938271604938272,0,0,0.04938271604938272,0,0)" xlink:href="#aj"/><use transform="matrix(0.04938271604938272,0,0,0.04938271604938272,6.913580246913581,0)" xlink:href="#aw"/><use transform="matrix(0.04938271604938272,0,0,0.04938271604938272,17.728395061728396,0)" xlink:href="#al"/><use transform="matrix(0.04938271604938272,0,0,0.04938271604938272,27.60493827160494,0)" xlink:href="#am"/><use transform="matrix(0.04938271604938272,0,0,0.04938271604938272,37.48148148148148,0)" xlink:href="#aj"/></g><g id="q"><use transform="matrix(0.04938271604938272,0,0,0.04938271604938272,0,0)" xlink:href="#ai"/><use transform="matrix(0.04938271604938272,0,0,0.04938271604938272,10.814814814814815,0)" xlink:href="#aj"/><use transform="matrix(0.04938271604938272,0,0,0.04938271604938272,17.728395061728396,0)" xlink:href="#ak"/><use transform="matrix(0.04938271604938272,0,0,0.04938271604938272,22.666666666666668,0)" xlink:href="#al"/><use transform="matrix(0.04938271604938272,0,0,0.04938271604938272,32.543209876543216,0)" xlink:href="#am"/><use transform="matrix(0.04938271604938272,0,0,0.04938271604938272,42.41975308641976,0)" xlink:href="#an"/><use transform="matrix(0.04938271604938272,0,0,0.04938271604938272,48.296296296296305,0)" xlink:href="#ai"/><use transform="matrix(0.04938271604938272,0,0,0.04938271604938272,59.111111111111114,0)" xlink:href="#aj"/><use transform="matrix(0.04938271604938272,0,0,0.04938271604938272,66.0246913580247,0)" xlink:href="#aw"/><use transform="matrix(0.04938271604938272,0,0,0.04938271604938272,76.8395061728395,0)" xlink:href="#al"/><use transform="matrix(0.04938271604938272,0,0,0.04938271604938272,86.71604938271605,0)" xlink:href="#am"/></g><path fill="#333" d="M121-226c-27-7-43 5-38 36h38v33H83V0H34v-157H6v-33h28c-9-59 32-81 87-68v32" id="aD"/><g id="r"><use transform="matrix(0.04938271604938272,0,0,0.04938271604938272,0,0)" xlink:href="#ao"/><use transform="matrix(0.04938271604938272,0,0,0.04938271604938272,9.876543209876544,0)" xlink:href="#aB"/><use transform="matrix(0.04938271604938272,0,0,0.04938271604938272,20.69135802469136,0)" xlink:href="#am"/><use transform="matrix(0.04938271604938272,0,0,0.04938271604938272,30.567901234567906,0)" xlink:href="#as"/><use transform="matrix(0.04938271604938272,0,0,0.04938271604938272,40.44444444444445,0)" xlink:href="#ak"/><use transform="matrix(0.04938271604938272,0,0,0.04938271604938272,45.38271604938272,0)" xlink:href="#aD"/><use transform="matrix(0.04938271604938272,0,0,0.04938271604938272,51.25925925925927,0)" xlink:href="#ak"/><use transform="matrix(0.04938271604938272,0,0,0.04938271604938272,56.19753086419754,0)" xlink:href="#am"/><use transform="matrix(0.04938271604938272,0,0,0.04938271604938272,66.07407407407408,0)" xlink:href="#ai"/></g><g id="s"><use transform="matrix(0.04938271604938272,0,0,0.04938271604938272,0,0)" xlink:href="#ai"/><use transform="matrix(0.04938271604938272,0,0,0.04938271604938272,10.814814814814815,0)" xlink:href="#ak"/><use transform="matrix(0.04938271604938272,0,0,0.04938271604938272,15.753086419753087,0)" xlink:href="#ao"/><use transform="matrix(0.04938271604938272,0,0,0.04938271604938272,25.629629629629633,0)" xlink:href="#ap"/><use transform="matrix(0.04938271604938272,0,0,0.04938271604938272,31.506172839506174,0)" xlink:href="#aq"/><use transform="matrix(0.04938271604938272,0,0,0.04938271604938272,41.38271604938272,0)" xlink:href="#ar"/><use transform="matrix(0.04938271604938272,0,0,0.04938271604938272,52.19753086419754,0)" xlink:href="#as"/><use transform="matrix(0.04938271604938272,0,0,0.04938271604938272,62.074074074074076,0)" xlink:href="#am"/><use transform="matrix(0.04938271604938272,0,0,0.04938271604938272,71.95061728395063,0)" xlink:href="#av"/></g><g id="t"><use transform="matrix(0.04938271604938272,0,0,0.04938271604938272,0,0)" xlink:href="#aq"/><use transform="matrix(0.04938271604938272,0,0,0.04938271604938272,9.876543209876544,0)" xlink:href="#ar"/><use transform="matrix(0.04938271604938272,0,0,0.04938271604938272,20.69135802469136,0)" xlink:href="#aq"/><use transform="matrix(0.04938271604938272,0,0,0.04938271604938272,30.567901234567906,0)" xlink:href="#ax"/><use transform="matrix(0.04938271604938272,0,0,0.04938271604938272,35.50617283950618,0)" xlink:href="#ay"/><use transform="matrix(0.04938271604938272,0,0,0.04938271604938272,45.38271604938272,0)" xlink:href="#ao"/><use transform="matrix(0.04938271604938272,0,0,0.04938271604938272,55.25925925925927,0)" xlink:href="#ak"/><use transform="matrix(0.04938271604938272,0,0,0.04938271604938272,60.19753086419754,0)" xlink:href="#ao"/><use transform="matrix(0.04938271604938272,0,0,0.04938271604938272,70.07407407407408,0)" xlink:href="#an"/><use transform="matrix(0.04938271604938272,0,0,0.04938271604938272,75.95061728395062,0)" xlink:href="#ao"/><use transform="matrix(0.04938271604938272,0,0,0.04938271604938272,85.82716049382717,0)" xlink:href="#aw"/><use transform="matrix(0.04938271604938272,0,0,0.04938271604938272,96.64197530864197,0)" xlink:href="#ak"/><use transform="matrix(0.04938271604938272,0,0,0.04938271604938272,101.58024691358025,0)" xlink:href="#ax"/></g><g id="u"><use transform="matrix(0.04938271604938272,0,0,0.04938271604938272,0,0)" xlink:href="#aq"/><use transform="matrix(0.04938271604938272,0,0,0.04938271604938272,9.876543209876544,0)" xlink:href="#ar"/><use transform="matrix(0.04938271604938272,0,0,0.04938271604938272,20.69135802469136,0)" xlink:href="#aq"/><use transform="matrix(0.04938271604938272,0,0,0.04938271604938272,30.567901234567906,0)" xlink:href="#ax"/><use transform="matrix(0.04938271604938272,0,0,0.04938271604938272,35.50617283950618,0)" xlink:href="#ay"/><use transform="matrix(0.04938271604938272,0,0,0.04938271604938272,45.38271604938272,0)" xlink:href="#ao"/><use transform="matrix(0.04938271604938272,0,0,0.04938271604938272,55.25925925925927,0)" xlink:href="#ak"/><use transform="matrix(0.04938271604938272,0,0,0.04938271604938272,60.19753086419754,0)" xlink:href="#ao"/></g><path fill="#333" d="M220-157c-53 9-28 100-34 157h-49v-107c1-27-5-49-29-50C55-147 81-57 75 0H25l-1-190h47c2 12-1 28 3 38 10-53 101-56 108 0 13-22 24-43 59-42 82 1 51 116 57 194h-49v-107c-1-25-5-48-29-50" id="aE"/><g id="v"><use transform="matrix(0.04938271604938272,0,0,0.04938271604938272,0,0)" xlink:href="#as"/><use transform="matrix(0.04938271604938272,0,0,0.04938271604938272,9.876543209876544,0)" xlink:href="#aw"/><use transform="matrix(0.04938271604938272,0,0,0.04938271604938272,20.69135802469136,0)" xlink:href="#aE"/><use transform="matrix(0.04938271604938272,0,0,0.04938271604938272,36.49382716049383,0)" xlink:href="#aB"/><use transform="matrix(0.04938271604938272,0,0,0.04938271604938272,47.308641975308646,0)" xlink:href="#ax"/><use transform="matrix(0.04938271604938272,0,0,0.04938271604938272,52.24691358024692,0)" xlink:href="#am"/><use transform="matrix(0.04938271604938272,0,0,0.04938271604938272,62.12345679012346,0)" xlink:href="#ap"/><use transform="matrix(0.04938271604938272,0,0,0.04938271604938272,68,0)" xlink:href="#am"/><use transform="matrix(0.04938271604938272,0,0,0.04938271604938272,77.87654320987654,0)" xlink:href="#ai"/><use transform="matrix(0.04938271604938272,0,0,0.04938271604938272,88.69135802469135,0)" xlink:href="#av"/></g><g id="w"><use transform="matrix(0.04938271604938272,0,0,0.04938271604938272,0,0)" xlink:href="#am"/><use transform="matrix(0.04938271604938272,0,0,0.04938271604938272,9.876543209876544,0)" xlink:href="#ar"/><use transform="matrix(0.04938271604938272,0,0,0.04938271604938272,20.69135802469136,0)" xlink:href="#al"/><use transform="matrix(0.04938271604938272,0,0,0.04938271604938272,30.567901234567906,0)" xlink:href="#ak"/><use transform="matrix(0.04938271604938272,0,0,0.04938271604938272,35.50617283950618,0)" xlink:href="#aj"/><use transform="matrix(0.04938271604938272,0,0,0.04938271604938272,42.41975308641976,0)" xlink:href="#aw"/><use transform="matrix(0.04938271604938272,0,0,0.04938271604938272,53.23456790123457,0)" xlink:href="#ar"/><use transform="matrix(0.04938271604938272,0,0,0.04938271604938272,64.0493827160494,0)" xlink:href="#aE"/><use transform="matrix(0.04938271604938272,0,0,0.04938271604938272,79.85185185185186,0)" xlink:href="#am"/><use transform="matrix(0.04938271604938272,0,0,0.04938271604938272,89.7283950617284,0)" xlink:href="#ar"/><use transform="matrix(0.04938271604938272,0,0,0.04938271604938272,100.54320987654322,0)" xlink:href="#ap"/></g><g id="x"><use transform="matrix(0.04938271604938272,0,0,0.04938271604938272,0,0)" xlink:href="#ao"/><use transform="matrix(0.04938271604938272,0,0,0.04938271604938272,9.876543209876544,0)" xlink:href="#ap"/><use transform="matrix(0.04938271604938272,0,0,0.04938271604938272,15.753086419753087,0)" xlink:href="#aq"/><use transform="matrix(0.04938271604938272,0,0,0.04938271604938272,25.629629629629633,0)" xlink:href="#ap"/><use transform="matrix(0.04938271604938272,0,0,0.04938271604938272,31.506172839506174,0)" xlink:href="#az"/><use transform="matrix(0.04938271604938272,0,0,0.04938271604938272,42.320987654320994,0)" xlink:href="#ao"/><use transform="matrix(0.04938271604938272,0,0,0.04938271604938272,52.19753086419754,0)" xlink:href="#aA"/></g><g id="y"><use transform="matrix(0.04938271604938272,0,0,0.04938271604938272,0,0)" xlink:href="#aj"/><use transform="matrix(0.04938271604938272,0,0,0.04938271604938272,6.913580246913581,0)" xlink:href="#am"/><use transform="matrix(0.04938271604938272,0,0,0.04938271604938272,16.790123456790127,0)" xlink:href="#aB"/><use transform="matrix(0.04938271604938272,0,0,0.04938271604938272,27.604938271604947,0)" xlink:href="#aw"/><use transform="matrix(0.04938271604938272,0,0,0.04938271604938272,38.41975308641976,0)" xlink:href="#aj"/><use transform="matrix(0.04938271604938272,0,0,0.04938271604938272,45.33333333333334,0)" xlink:href="#ap"/></g><g id="z"><use transform="matrix(0.04938271604938272,0,0,0.04938271604938272,0,0)" xlink:href="#ao"/><use transform="matrix(0.04938271604938272,0,0,0.04938271604938272,9.876543209876544,0)" xlink:href="#ap"/><use transform="matrix(0.04938271604938272,0,0,0.04938271604938272,15.753086419753087,0)" xlink:href="#aq"/><use transform="matrix(0.04938271604938272,0,0,0.04938271604938272,25.629629629629633,0)" xlink:href="#ap"/><use transform="matrix(0.04938271604938272,0,0,0.04938271604938272,31.506172839506174,0)" xlink:href="#az"/><use transform="matrix(0.04938271604938272,0,0,0.04938271604938272,42.320987654320994,0)" xlink:href="#ao"/></g><path fill="#333" d="M147 0L96-86 75-71V0H25v-261h50v150l67-79h53l-66 74L201 0h-54" id="aF"/><g id="A"><use transform="matrix(0.04938271604938272,0,0,0.04938271604938272,0,0)" xlink:href="#ap"/><use transform="matrix(0.04938271604938272,0,0,0.04938271604938272,5.8765432098765435,0)" xlink:href="#aq"/><use transform="matrix(0.04938271604938272,0,0,0.04938271604938272,15.753086419753087,0)" xlink:href="#aF"/><use transform="matrix(0.04938271604938272,0,0,0.04938271604938272,25.629629629629633,0)" xlink:href="#am"/></g><path fill="#333" d="M114-157C55-157 80-60 75 0H25v-261h50l-1 109c12-26 28-41 61-42 86-1 58 113 63 194h-50c-7-57 23-157-34-157" id="aG"/><g id="B"><use transform="matrix(0.04938271604938272,0,0,0.04938271604938272,0,0)" xlink:href="#aB"/><use transform="matrix(0.04938271604938272,0,0,0.04938271604938272,10.814814814814815,0)" xlink:href="#aG"/><use transform="matrix(0.04938271604938272,0,0,0.04938271604938272,21.62962962962963,0)" xlink:href="#aw"/><use transform="matrix(0.04938271604938272,0,0,0.04938271604938272,32.44444444444444,0)" xlink:href="#ap"/><use transform="matrix(0.04938271604938272,0,0,0.04938271604938272,38.32098765432099,0)" xlink:href="#aw"/><use transform="matrix(0.04938271604938272,0,0,0.04938271604938272,49.135802469135804,0)" xlink:href="#aA"/></g><g id="C"><use transform="matrix(0.04938271604938272,0,0,0.04938271604938272,0,0)" xlink:href="#ap"/><use transform="matrix(0.04938271604938272,0,0,0.04938271604938272,5.8765432098765435,0)" xlink:href="#aq"/><use transform="matrix(0.04938271604938272,0,0,0.04938271604938272,15.753086419753087,0)" xlink:href="#aF"/><use transform="matrix(0.04938271604938272,0,0,0.04938271604938272,25.629629629629633,0)" xlink:href="#am"/></g><use transform="matrix(0.04938271604938272,0,0,0.04938271604938272,0,0)" xlink:href="#aq" id="D"/><g id="E"><use transform="matrix(0.04938271604938272,0,0,0.04938271604938272,0,0)" xlink:href="#aB"/><use transform="matrix(0.04938271604938272,0,0,0.04938271604938272,10.814814814814815,0)" xlink:href="#aG"/><use transform="matrix(0.04938271604938272,0,0,0.04938271604938272,21.62962962962963,0)" xlink:href="#aw"/><use transform="matrix(0.04938271604938272,0,0,0.04938271604938272,32.44444444444444,0)" xlink:href="#ap"/><use transform="matrix(0.04938271604938272,0,0,0.04938271604938272,38.32098765432099,0)" xlink:href="#aw"/></g><g id="F"><use transform="matrix(0.04938271604938272,0,0,0.04938271604938272,0,0)" xlink:href="#ai"/><use transform="matrix(0.04938271604938272,0,0,0.04938271604938272,10.814814814814815,0)" xlink:href="#aj"/><use transform="matrix(0.04938271604938272,0,0,0.04938271604938272,17.728395061728396,0)" xlink:href="#ak"/><use transform="matrix(0.04938271604938272,0,0,0.04938271604938272,22.666666666666668,0)" xlink:href="#al"/><use transform="matrix(0.04938271604938272,0,0,0.04938271604938272,32.543209876543216,0)" xlink:href="#am"/><use transform="matrix(0.04938271604938272,0,0,0.04938271604938272,42.41975308641976,0)" xlink:href="#aA"/></g><g id="G"><use transform="matrix(0.04938271604938272,0,0,0.04938271604938272,0,0)" xlink:href="#aB"/><use transform="matrix(0.04938271604938272,0,0,0.04938271604938272,10.814814814814815,0)" xlink:href="#am"/><use transform="matrix(0.04938271604938272,0,0,0.04938271604938272,20.69135802469136,0)" xlink:href="#aj"/><use transform="matrix(0.04938271604938272,0,0,0.04938271604938272,27.604938271604947,0)" xlink:href="#aD"/><use transform="matrix(0.04938271604938272,0,0,0.04938271604938272,33.48148148148149,0)" xlink:href="#aw"/><use transform="matrix(0.04938271604938272,0,0,0.04938271604938272,44.296296296296305,0)" xlink:href="#aj"/><use transform="matrix(0.04938271604938272,0,0,0.04938271604938272,51.209876543209894,0)" xlink:href="#aE"/></g><g id="H"><use transform="matrix(0.04938271604938272,0,0,0.04938271604938272,0,0)" xlink:href="#ao"/><use transform="matrix(0.04938271604938272,0,0,0.04938271604938272,9.876543209876544,0)" xlink:href="#aw"/><use transform="matrix(0.04938271604938272,0,0,0.04938271604938272,20.69135802469136,0)" xlink:href="#ak"/><use transform="matrix(0.04938271604938272,0,0,0.04938271604938272,25.629629629629633,0)" xlink:href="#ax"/></g><g id="I"><use transform="matrix(0.04938271604938272,0,0,0.04938271604938272,0,0)" xlink:href="#aq"/><use transform="matrix(0.04938271604938272,0,0,0.04938271604938272,9.876543209876544,0)" xlink:href="#ar"/><use transform="matrix(0.04938271604938272,0,0,0.04938271604938272,20.69135802469136,0)" xlink:href="#aq"/><use transform="matrix(0.04938271604938272,0,0,0.04938271604938272,30.567901234567906,0)" xlink:href="#ax"/><use transform="matrix(0.04938271604938272,0,0,0.04938271604938272,35.50617283950618,0)" xlink:href="#ay"/><use transform="matrix(0.04938271604938272,0,0,0.04938271604938272,45.38271604938272,0)" xlink:href="#ao"/><use transform="matrix(0.04938271604938272,0,0,0.04938271604938272,55.25925925925927,0)" xlink:href="#ak"/><use transform="matrix(0.04938271604938272,0,0,0.04938271604938272,60.19753086419754,0)" xlink:href="#ao"/><use transform="matrix(0.04938271604938272,0,0,0.04938271604938272,70.07407407407408,0)" xlink:href="#aA"/></g><g id="J"><use transform="matrix(0.04938271604938272,0,0,0.04938271604938272,0,0)" xlink:href="#aB"/><use transform="matrix(0.04938271604938272,0,0,0.04938271604938272,10.814814814814815,0)" xlink:href="#aj"/><use transform="matrix(0.04938271604938272,0,0,0.04938271604938272,17.728395061728396,0)" xlink:href="#ak"/><use transform="matrix(0.04938271604938272,0,0,0.04938271604938272,22.666666666666668,0)" xlink:href="#ar"/><use transform="matrix(0.04938271604938272,0,0,0.04938271604938272,33.48148148148148,0)" xlink:href="#ap"/></g><path fill="#333" d="M231 0h-52l-39-155L100 0H48L-1-190h46L77-45c9-52 24-97 36-145h53l37 145 32-145h46" id="aH"/><g id="K"><use transform="matrix(0.04938271604938272,0,0,0.04938271604938272,0,0)" xlink:href="#ai"/><use transform="matrix(0.04938271604938272,0,0,0.04938271604938272,10.814814814814815,0)" xlink:href="#aj"/><use transform="matrix(0.04938271604938272,0,0,0.04938271604938272,17.728395061728396,0)" xlink:href="#ak"/><use transform="matrix(0.04938271604938272,0,0,0.04938271604938272,22.666666666666668,0)" xlink:href="#al"/><use transform="matrix(0.04938271604938272,0,0,0.04938271604938272,32.543209876543216,0)" xlink:href="#am"/><use transform="matrix(0.04938271604938272,0,0,0.04938271604938272,42.41975308641976,0)" xlink:href="#an"/><use transform="matrix(0.04938271604938272,0,0,0.04938271604938272,48.296296296296305,0)" xlink:href="#ar"/><use transform="matrix(0.04938271604938272,0,0,0.04938271604938272,59.111111111111114,0)" xlink:href="#am"/><use transform="matrix(0.04938271604938272,0,0,0.04938271604938272,68.98765432098767,0)" xlink:href="#aH"/></g><g id="L"><use transform="matrix(0.04938271604938272,0,0,0.04938271604938272,0,0)" xlink:href="#ai"/><use transform="matrix(0.04938271604938272,0,0,0.04938271604938272,10.814814814814815,0)" xlink:href="#ak"/><use transform="matrix(0.04938271604938272,0,0,0.04938271604938272,15.753086419753087,0)" xlink:href="#ao"/><use transform="matrix(0.04938271604938272,0,0,0.04938271604938272,25.629629629629633,0)" xlink:href="#ap"/><use transform="matrix(0.04938271604938272,0,0,0.04938271604938272,31.506172839506174,0)" xlink:href="#aq"/><use transform="matrix(0.04938271604938272,0,0,0.04938271604938272,41.38271604938272,0)" xlink:href="#ar"/><use transform="matrix(0.04938271604938272,0,0,0.04938271604938272,52.19753086419754,0)" xlink:href="#as"/><use transform="matrix(0.04938271604938272,0,0,0.04938271604938272,62.074074074074076,0)" xlink:href="#am"/><use transform="matrix(0.04938271604938272,0,0,0.04938271604938272,71.95061728395063,0)" xlink:href="#av"/><use transform="matrix(0.04938271604938272,0,0,0.04938271604938272,77.82716049382718,0)" xlink:href="#aA"/><use transform="matrix(0.04938271604938272,0,0,0.04938271604938272,82.76543209876544,0)" xlink:href="#az"/><use transform="matrix(0.04938271604938272,0,0,0.04938271604938272,93.58024691358025,0)" xlink:href="#aB"/><use transform="matrix(0.04938271604938272,0,0,0.04938271604938272,104.39506172839508,0)" xlink:href="#ai"/><use transform="matrix(0.04938271604938272,0,0,0.04938271604938272,115.20987654320986,0)" xlink:href="#aq"/><use transform="matrix(0.04938271604938272,0,0,0.04938271604938272,125.0864197530864,0)" xlink:href="#ap"/><use transform="matrix(0.04938271604938272,0,0,0.04938271604938272,130.96296296296296,0)" xlink:href="#am"/></g><g id="M"><use transform="matrix(0.04938271604938272,0,0,0.04938271604938272,0,0)" xlink:href="#ai"/><use transform="matrix(0.04938271604938272,0,0,0.04938271604938272,10.814814814814815,0)" xlink:href="#ak"/><use transform="matrix(0.04938271604938272,0,0,0.04938271604938272,15.753086419753087,0)" xlink:href="#ao"/><use transform="matrix(0.04938271604938272,0,0,0.04938271604938272,25.629629629629633,0)" xlink:href="#ap"/><use transform="matrix(0.04938271604938272,0,0,0.04938271604938272,31.506172839506174,0)" xlink:href="#aq"/><use transform="matrix(0.04938271604938272,0,0,0.04938271604938272,41.38271604938272,0)" xlink:href="#ar"/><use transform="matrix(0.04938271604938272,0,0,0.04938271604938272,52.19753086419754,0)" xlink:href="#as"/><use transform="matrix(0.04938271604938272,0,0,0.04938271604938272,62.074074074074076,0)" xlink:href="#am"/></g><g id="N"><use transform="matrix(0.04938271604938272,0,0,0.04938271604938272,0,0)" xlink:href="#ap"/><use transform="matrix(0.04938271604938272,0,0,0.04938271604938272,5.8765432098765435,0)" xlink:href="#aw"/></g><g id="O"><use transform="matrix(0.04938271604938272,0,0,0.04938271604938272,0,0)" xlink:href="#ai"/><use transform="matrix(0.04938271604938272,0,0,0.04938271604938272,10.814814814814815,0)" xlink:href="#aj"/><use transform="matrix(0.04938271604938272,0,0,0.04938271604938272,17.728395061728396,0)" xlink:href="#ak"/><use transform="matrix(0.04938271604938272,0,0,0.04938271604938272,22.666666666666668,0)" xlink:href="#al"/><use transform="matrix(0.04938271604938272,0,0,0.04938271604938272,32.543209876543216,0)" xlink:href="#am"/></g><g id="P"><use transform="matrix(0.04938271604938272,0,0,0.04938271604938272,0,0)" xlink:href="#aq"/><use transform="matrix(0.04938271604938272,0,0,0.04938271604938272,9.876543209876544,0)" xlink:href="#ar"/><use transform="matrix(0.04938271604938272,0,0,0.04938271604938272,20.69135802469136,0)" xlink:href="#aq"/><use transform="matrix(0.04938271604938272,0,0,0.04938271604938272,30.567901234567906,0)" xlink:href="#ax"/><use transform="matrix(0.04938271604938272,0,0,0.04938271604938272,35.50617283950618,0)" xlink:href="#ay"/><use transform="matrix(0.04938271604938272,0,0,0.04938271604938272,45.38271604938272,0)" xlink:href="#ao"/><use transform="matrix(0.04938271604938272,0,0,0.04938271604938272,55.25925925925927,0)" xlink:href="#ak"/><use transform="matrix(0.04938271604938272,0,0,0.04938271604938272,60.19753086419754,0)" xlink:href="#ao"/><use transform="matrix(0.04938271604938272,0,0,0.04938271604938272,70.07407407407408,0)" xlink:href="#an"/><use transform="matrix(0.04938271604938272,0,0,0.04938271604938272,75.95061728395062,0)" xlink:href="#aq"/><use transform="matrix(0.04938271604938272,0,0,0.04938271604938272,85.82716049382717,0)" xlink:href="#ax"/><use transform="matrix(0.04938271604938272,0,0,0.04938271604938272,90.76543209876544,0)" xlink:href="#aj"/><use transform="matrix(0.04938271604938272,0,0,0.04938271604938272,97.67901234567903,0)" xlink:href="#am"/><use transform="matrix(0.04938271604938272,0,0,0.04938271604938272,107.55555555555557,0)" xlink:href="#aq"/><use transform="matrix(0.04938271604938272,0,0,0.04938271604938272,117.43209876543212,0)" xlink:href="#ai"/><use transform="matrix(0.04938271604938272,0,0,0.04938271604938272,128.24691358024694,0)" xlink:href="#ay"/></g><g id="Q"><use transform="matrix(0.04938271604938272,0,0,0.04938271604938272,0,0)" xlink:href="#aB"/><use transform="matrix(0.04938271604938272,0,0,0.04938271604938272,10.814814814814815,0)" xlink:href="#am"/><use transform="matrix(0.04938271604938272,0,0,0.04938271604938272,20.69135802469136,0)" xlink:href="#aj"/><use transform="matrix(0.04938271604938272,0,0,0.04938271604938272,27.604938271604947,0)" xlink:href="#aD"/><use transform="matrix(0.04938271604938272,0,0,0.04938271604938272,33.48148148148149,0)" xlink:href="#aw"/><use transform="matrix(0.04938271604938272,0,0,0.04938271604938272,44.296296296296305,0)" xlink:href="#aj"/><use transform="matrix(0.04938271604938272,0,0,0.04938271604938272,51.209876543209894,0)" xlink:href="#aE"/><use transform="matrix(0.04938271604938272,0,0,0.04938271604938272,67.01234567901236,0)" xlink:href="#ak"/><use transform="matrix(0.04938271604938272,0,0,0.04938271604938272,71.95061728395063,0)" xlink:href="#ar"/><use transform="matrix(0.04938271604938272,0,0,0.04938271604938272,82.76543209876544,0)" xlink:href="#aC"/><use transform="matrix(0.04938271604938272,0,0,0.04938271604938272,93.58024691358025,0)" xlink:href="#av"/><use transform="matrix(0.04938271604938272,0,0,0.04938271604938272,99.4567901234568,0)" xlink:href="#aA"/><use transform="matrix(0.04938271604938272,0,0,0.04938271604938272,104.39506172839508,0)" xlink:href="#aB"/><use transform="matrix(0.04938271604938272,0,0,0.04938271604938272,115.20987654320986,0)" xlink:href="#aj"/><use transform="matrix(0.04938271604938272,0,0,0.04938271604938272,122.12345679012344,0)" xlink:href="#ak"/><use transform="matrix(0.04938271604938272,0,0,0.04938271604938272,127.06172839506172,0)" xlink:href="#ar"/><use transform="matrix(0.04938271604938272,0,0,0.04938271604938272,137.87654320987653,0)" xlink:href="#ap"/></g></defs></g></svg>